<svg xmlns="http://www.w3.org/2000/svg" xmlns:xlink="http://www.w3.org/1999/xlink" width="472" zoomAndPan="magnify" viewBox="0 0 354 235.499993" height="314" preserveAspectRatio="xMidYMid meet" version="1.0"><defs><clipPath id="f525846a73"><path d="M 0.375 0 L 353.625 0 L 353.625 235 L 0.375 235 Z M 0.375 0 " clip-rule="nonzero"/></clipPath><clipPath id="62b73d54b0"><path d="M 0.375 104 L 353 104 L 353 235 L 0.375 235 Z M 0.375 104 " clip-rule="nonzero"/></clipPath><clipPath id="ca103087ff"><path d="M -38.855469 104.128906 L 349.527344 98.445312 L 352.679688 313.964844 L -35.703125 319.648438 Z M -38.855469 104.128906 " clip-rule="nonzero"/></clipPath><clipPath id="cc66fe2149"><path d="M -38.855469 104.128906 L 349.527344 98.445312 L 352.679688 313.964844 L -35.703125 319.648438 Z M -38.855469 104.128906 " clip-rule="nonzero"/></clipPath><clipPath id="2c64bf7cad"><path d="M 0.375 201 L 353 201 L 353 235 L 0.375 235 Z M 0.375 201 " clip-rule="nonzero"/></clipPath><clipPath id="f5434692eb"><path d="M -38.855469 104.128906 L 349.527344 98.445312 L 352.679688 313.964844 L -35.703125 319.648438 Z M -38.855469 104.128906 " clip-rule="nonzero"/></clipPath><clipPath id="671cfcc9bf"><path d="M -38.855469 104.128906 L 349.527344 98.445312 L 352.679688 313.964844 L -35.703125 319.648438 Z M -38.855469 104.128906 " clip-rule="nonzero"/></clipPath><clipPath id="655c2703f4"><path d="M 0.375 104 L 352 104 L 352 235 L 0.375 235 Z M 0.375 104 " clip-rule="nonzero"/></clipPath><clipPath id="86df3e1a77"><path d="M -38.855469 104.128906 L 349.527344 98.445312 L 352.679688 313.964844 L -35.703125 319.648438 Z M -38.855469 104.128906 " clip-rule="nonzero"/></clipPath><clipPath id="7f8305886c"><path d="M -38.855469 104.128906 L 349.527344 98.445312 L 352.679688 313.964844 L -35.703125 319.648438 Z M -38.855469 104.128906 " clip-rule="nonzero"/></clipPath><clipPath id="ab8aeb9c05"><path d="M 192 199 L 352 199 L 352 226 L 192 226 Z M 192 199 " clip-rule="nonzero"/></clipPath><clipPath id="48726d732b"><path d="M -38.855469 104.128906 L 349.527344 98.445312 L 352.679688 313.964844 L -35.703125 319.648438 Z M -38.855469 104.128906 " clip-rule="nonzero"/></clipPath><clipPath id="5829b2a9f4"><path d="M -38.855469 104.128906 L 349.527344 98.445312 L 352.679688 313.964844 L -35.703125 319.648438 Z M -38.855469 104.128906 " clip-rule="nonzero"/></clipPath><clipPath id="6db4533e44"><path d="M 129 175 L 352 175 L 352 221 L 129 221 Z M 129 175 " clip-rule="nonzero"/></clipPath><clipPath id="6d3ae72866"><path d="M -38.855469 104.128906 L 349.527344 98.445312 L 352.679688 313.964844 L -35.703125 319.648438 Z M -38.855469 104.128906 " clip-rule="nonzero"/></clipPath><clipPath id="72474fa59b"><path d="M -38.855469 104.128906 L 349.527344 98.445312 L 352.679688 313.964844 L -35.703125 319.648438 Z M -38.855469 104.128906 " clip-rule="nonzero"/></clipPath><clipPath id="31d729c4c6"><path d="M 192 204 L 352 204 L 352 226 L 192 226 Z M 192 204 " clip-rule="nonzero"/></clipPath><clipPath id="b2b50232eb"><path d="M -38.855469 104.128906 L 349.527344 98.445312 L 352.679688 313.964844 L -35.703125 319.648438 Z M -38.855469 104.128906 " clip-rule="nonzero"/></clipPath><clipPath id="0feff2a7b6"><path d="M -38.855469 104.128906 L 349.527344 98.445312 L 352.679688 313.964844 L -35.703125 319.648438 Z M -38.855469 104.128906 " clip-rule="nonzero"/></clipPath><clipPath id="812353ed6c"><path d="M 129 220 L 130 220 L 130 221 L 129 221 Z M 129 220 " clip-rule="nonzero"/></clipPath><clipPath id="a973b768e9"><path d="M -38.855469 104.128906 L 349.527344 98.445312 L 352.679688 313.964844 L -35.703125 319.648438 Z M -38.855469 104.128906 " clip-rule="nonzero"/></clipPath><clipPath id="ea75acdf1d"><path d="M -38.855469 104.128906 L 349.527344 98.445312 L 352.679688 313.964844 L -35.703125 319.648438 Z M -38.855469 104.128906 " clip-rule="nonzero"/></clipPath><clipPath id="b646894814"><path d="M 136 184 L 352 184 L 352 221 L 136 221 Z M 136 184 " clip-rule="nonzero"/></clipPath><clipPath id="3953a28c6c"><path d="M -38.855469 104.128906 L 349.527344 98.445312 L 352.679688 313.964844 L -35.703125 319.648438 Z M -38.855469 104.128906 " clip-rule="nonzero"/></clipPath><clipPath id="074da95554"><path d="M -38.855469 104.128906 L 349.527344 98.445312 L 352.679688 313.964844 L -35.703125 319.648438 Z M -38.855469 104.128906 " clip-rule="nonzero"/></clipPath><clipPath id="4ad28c7bb5"><path d="M 3 0 L 118 0 L 118 56 L 3 56 Z M 3 0 " clip-rule="nonzero"/></clipPath><clipPath id="4bcdf27048"><path d="M 30.34375 -32.074219 L 117.660156 -5.378906 L 90.964844 81.9375 L 3.648438 55.242188 Z M 30.34375 -32.074219 " clip-rule="nonzero"/></clipPath><clipPath id="2fb45dca2e"><path d="M 30.34375 -32.074219 L 117.660156 -5.378906 L 90.964844 81.9375 L 3.648438 55.242188 Z M 30.34375 -32.074219 " clip-rule="nonzero"/></clipPath><clipPath id="0770ebaebe"><path d="M 6.453125 0 L 84.289062 0 L 84.289062 62.140625 L 6.453125 62.140625 Z M 6.453125 0 " clip-rule="nonzero"/></clipPath><clipPath id="60f5f2c5e7"><path d="M 293.164062 32.660156 L 325 32.660156 L 325 64 L 293.164062 64 Z M 293.164062 32.660156 " clip-rule="nonzero"/></clipPath><clipPath id="57cf86ab20"><path d="M 306 55 L 336.570312 55 L 336.570312 84 L 306 84 Z M 306 55 " clip-rule="nonzero"/></clipPath><clipPath id="5d7e67bb99"><path d="M 0.375 62.625 L 11 62.625 L 11 94 L 0.375 94 Z M 0.375 62.625 " clip-rule="nonzero"/></clipPath><clipPath id="359a1a95fa"><path d="M 0.375 85 L 23.054688 85 L 23.054688 114 L 0.375 114 Z M 0.375 85 " clip-rule="nonzero"/></clipPath></defs><g clip-path="url(#f525846a73)"><path fill="#ffffff" d="M 0.375 0 L 353.625 0 L 353.625 235 L 0.375 235 Z M 0.375 0 " fill-opacity="1" fill-rule="nonzero"/><path fill="#ffffff" d="M 0.375 0 L 353.625 0 L 353.625 235 L 0.375 235 Z M 0.375 0 " fill-opacity="1" fill-rule="nonzero"/></g><g clip-path="url(#62b73d54b0)"><g clip-path="url(#ca103087ff)"><g clip-path="url(#cc66fe2149)"><path fill="#0255a3" d="M -38.855469 104.234375 C -38.855469 104.234375 -16.300781 211.03125 69.128906 223.347656 C 154.5625 235.664062 273.78125 183.191406 351.722656 231.652344 L 352.457031 281.863281 C 352.457031 281.863281 311.886719 228.605469 212.480469 252.152344 C 113.074219 275.703125 59.160156 318.144531 -36.101562 284.929688 Z M -38.855469 104.234375 " fill-opacity="1" fill-rule="nonzero"/></g></g></g><g clip-path="url(#2c64bf7cad)"><g clip-path="url(#f5434692eb)"><g clip-path="url(#671cfcc9bf)"><path fill="#35b6ff" d="M 306.191406 224.03125 C 246.347656 215.578125 194.269531 249.769531 93.164062 261.355469 C -5.292969 272.675781 -35.875 204.835938 -37.378906 201.34375 L -36.101562 284.929688 C 59.160156 318.144531 113.066406 275.664062 212.480469 252.152344 C 311.894531 228.644531 352.457031 281.878906 352.457031 281.878906 L 351.851562 240.683594 C 341.726562 233.429688 326.835938 226.941406 306.191406 224.03125 Z M 306.191406 224.03125 " fill-opacity="1" fill-rule="nonzero"/></g></g></g><g clip-path="url(#655c2703f4)"><g clip-path="url(#86df3e1a77)"><g clip-path="url(#7f8305886c)"><path fill="#35b6ff" d="M 69.128906 223.347656 C -16.300781 211.03125 -38.855469 104.234375 -38.855469 104.234375 L -38.429688 133.480469 C -22.34375 173.28125 0.722656 227.417969 81.289062 233.394531 C 174.59375 240.316406 278.378906 186.902344 351.742188 233.144531 L 351.722656 231.667969 C 273.757812 183.191406 154.570312 235.664062 69.128906 223.347656 Z M 69.128906 223.347656 " fill-opacity="1" fill-rule="nonzero"/></g></g></g><g clip-path="url(#ab8aeb9c05)"><g clip-path="url(#48726d732b)"><g clip-path="url(#5829b2a9f4)"><path fill="#35b6ff" d="M 351.628906 225.394531 C 351.628906 225.394531 302.707031 192.527344 192.855469 213.132812 C 192.855469 213.132812 303.625 185.59375 351.402344 209.804688 Z M 351.628906 225.394531 " fill-opacity="1" fill-rule="nonzero"/></g></g></g><g clip-path="url(#6db4533e44)"><g clip-path="url(#6d3ae72866)"><g clip-path="url(#72474fa59b)"><path fill="#35b6ff" d="M 351.085938 200.898438 C 351.085938 200.898438 330.347656 188.445312 279.570312 193.640625 C 228.796875 198.839844 178.339844 214.699219 129.578125 220.949219 C 129.578125 220.949219 210.617188 198.703125 233.019531 192.09375 C 255.421875 185.484375 316.863281 169.199219 350.753906 178.421875 Z M 351.085938 200.898438 " fill-opacity="1" fill-rule="nonzero"/></g></g></g><g clip-path="url(#31d729c4c6)"><g clip-path="url(#b2b50232eb)"><g clip-path="url(#0feff2a7b6)"><path fill="#0255a3" d="M 351.628906 225.394531 L 351.519531 217.902344 L 351.328125 217.632812 C 351.328125 217.632812 331.488281 204.359375 292.40625 204.339844 C 254.84375 204.296875 227.046875 207.300781 196.597656 212.269531 C 194.1875 212.820312 192.863281 213.148438 192.863281 213.148438 C 302.707031 192.527344 351.628906 225.394531 351.628906 225.394531 Z M 351.628906 225.394531 " fill-opacity="1" fill-rule="nonzero"/></g></g></g><g clip-path="url(#812353ed6c)"><g clip-path="url(#a973b768e9)"><g clip-path="url(#ea75acdf1d)"><path fill="#0255a3" d="M 129.578125 220.949219 L 129.890625 220.902344 L 129.757812 220.90625 Z M 129.578125 220.949219 " fill-opacity="1" fill-rule="nonzero"/></g></g></g><g clip-path="url(#b646894814)"><g clip-path="url(#3953a28c6c)"><g clip-path="url(#074da95554)"><path fill="#0255a3" d="M 279.570312 193.640625 C 330.347656 188.445312 351.085938 200.898438 351.085938 200.898438 L 350.898438 188.066406 C 350.898438 188.066406 332.558594 180.644531 297.222656 186.023438 C 266.003906 190.769531 163.0625 215.195312 136.019531 220.066406 C 182.75 213.320312 231.023438 198.605469 279.570312 193.640625 Z M 279.570312 193.640625 " fill-opacity="1" fill-rule="nonzero"/></g></g></g><g clip-path="url(#4ad28c7bb5)"><g clip-path="url(#4bcdf27048)"><g clip-path="url(#2fb45dca2e)"><path fill="#35b6ff" d="M 30.351562 -32.074219 L 117.839844 -5.324219 C 114.855469 -6.238281 111.835938 -6.996094 108.773438 -7.601562 C 105.765625 -8.199219 102.734375 -8.640625 99.679688 -8.933594 C 96.683594 -9.21875 93.640625 -9.355469 90.632812 -9.339844 C 87.660156 -9.328125 84.652344 -9.164062 81.695312 -8.855469 C 75.804688 -8.242188 70.027344 -7.066406 64.363281 -5.332031 C 58.742188 -3.609375 53.339844 -1.367188 48.148438 1.394531 C 42.957031 4.15625 38.074219 7.382812 33.503906 11.078125 C 28.898438 14.800781 24.691406 18.933594 20.890625 23.476562 C 18.980469 25.757812 17.164062 28.15625 15.488281 30.613281 C 13.796875 33.097656 12.207031 35.699219 10.769531 38.34375 C 9.304688 41.035156 7.976562 43.796875 6.785156 46.625 C 5.574219 49.507812 4.515625 52.445312 3.601562 55.433594 Z M 30.351562 -32.074219 " fill-opacity="1" fill-rule="nonzero"/></g></g></g><g clip-path="url(#0770ebaebe)"><path fill="#0255a3" d="M 6.464844 -15.691406 L 84.246094 -15.691406 C 81.59375 -15.691406 78.945312 -15.558594 76.308594 -15.292969 C 73.714844 -15.027344 71.136719 -14.632812 68.582031 -14.113281 C 66.078125 -13.601562 63.566406 -12.953125 61.128906 -12.195312 C 58.714844 -11.445312 56.308594 -10.566406 53.980469 -9.578125 C 49.34375 -7.617188 44.9375 -5.226562 40.765625 -2.40625 C 36.625 0.394531 32.785156 3.558594 29.25 7.09375 C 25.714844 10.628906 22.550781 14.46875 19.75 18.609375 C 16.929688 22.78125 14.539062 27.1875 12.578125 31.824219 C 11.589844 34.152344 10.710938 36.558594 9.960938 38.972656 C 9.203125 41.410156 8.554688 43.921875 8.042969 46.425781 C 7.519531 48.984375 7.128906 51.558594 6.863281 54.152344 C 6.597656 56.796875 6.464844 59.449219 6.464844 62.105469 Z M 6.464844 -15.691406 " fill-opacity="1" fill-rule="nonzero"/></g><g clip-path="url(#60f5f2c5e7)"><path fill="#0255a3" d="M 322.660156 42.214844 L 314.84375 42.214844 L 314.84375 34.402344 C 314.84375 33.449219 314.074219 32.679688 313.125 32.679688 L 304.417969 32.679688 C 303.464844 32.679688 302.695312 33.449219 302.695312 34.402344 L 302.695312 42.214844 L 294.882812 42.214844 C 293.933594 42.214844 293.164062 42.984375 293.164062 43.933594 L 293.164062 52.644531 C 293.164062 53.59375 293.933594 54.363281 294.882812 54.363281 L 302.695312 54.363281 L 302.695312 62.179688 C 302.695312 63.128906 303.464844 63.898438 304.417969 63.898438 L 313.125 63.898438 C 314.074219 63.898438 314.84375 63.128906 314.84375 62.179688 L 314.84375 54.363281 L 322.660156 54.363281 C 323.609375 54.363281 324.378906 53.59375 324.378906 52.644531 L 324.378906 43.933594 C 324.378906 42.984375 323.609375 42.214844 322.660156 42.214844 Z M 322.660156 42.214844 " fill-opacity="1" fill-rule="nonzero"/></g><g clip-path="url(#57cf86ab20)"><path fill="#35b6ff" d="M 321.835938 74 L 321.835938 78.351562 C 321.835938 78.828125 321.449219 79.210938 320.976562 79.210938 L 317.0625 79.210938 L 317.0625 83.125 C 317.0625 83.601562 316.675781 83.984375 316.203125 83.984375 L 311.847656 83.984375 C 311.371094 83.984375 310.988281 83.601562 310.988281 83.125 L 310.988281 79.210938 L 307.074219 79.210938 C 306.597656 79.210938 306.214844 78.828125 306.214844 78.351562 L 306.214844 74 C 306.214844 73.523438 306.597656 73.140625 307.074219 73.140625 L 310.988281 73.140625 L 310.988281 69.226562 C 310.988281 68.75 311.371094 68.367188 311.847656 68.367188 L 316.203125 68.367188 C 316.675781 68.367188 317.0625 68.75 317.0625 69.226562 L 317.0625 73.140625 L 320.976562 73.140625 C 321.4375 73.140625 321.835938 73.523438 321.835938 74 Z M 335.90625 59.859375 L 332.703125 59.859375 L 332.703125 56.660156 C 332.703125 56.273438 332.386719 55.957031 332.003906 55.957031 L 328.441406 55.957031 C 328.054688 55.957031 327.738281 56.273438 327.738281 56.660156 L 327.738281 59.859375 L 324.539062 59.859375 C 324.152344 59.859375 323.835938 60.175781 323.835938 60.5625 L 323.835938 64.125 C 323.835938 64.507812 324.152344 64.824219 324.539062 64.824219 L 327.738281 64.824219 L 327.738281 68.027344 C 327.738281 68.410156 328.054688 68.726562 328.441406 68.726562 L 332.003906 68.726562 C 332.386719 68.726562 332.703125 68.410156 332.703125 68.027344 L 332.703125 64.824219 L 335.90625 64.824219 C 336.289062 64.824219 336.605469 64.507812 336.605469 64.125 L 336.605469 60.5625 C 336.617188 60.175781 336.300781 59.859375 335.90625 59.859375 Z M 335.90625 59.859375 " fill-opacity="1" fill-rule="nonzero"/></g><g clip-path="url(#5d7e67bb99)"><path fill="#0255a3" d="M 9.144531 72.179688 L 1.328125 72.179688 L 1.328125 64.363281 C 1.328125 63.414062 0.558594 62.644531 -0.390625 62.644531 L -9.101562 62.644531 C -10.050781 62.644531 -10.820312 63.414062 -10.820312 64.363281 L -10.820312 72.179688 L -18.636719 72.179688 C -19.585938 72.179688 -20.355469 72.949219 -20.355469 73.898438 L -20.355469 82.609375 C -20.355469 83.558594 -19.585938 84.328125 -18.636719 84.328125 L -10.820312 84.328125 L -10.820312 92.144531 C -10.820312 93.09375 -10.050781 93.863281 -9.101562 93.863281 L -0.390625 93.863281 C 0.558594 93.863281 1.328125 93.09375 1.328125 92.144531 L 1.328125 84.328125 L 9.144531 84.328125 C 10.09375 84.328125 10.863281 83.558594 10.863281 82.609375 L 10.863281 73.898438 C 10.863281 72.949219 10.09375 72.179688 9.144531 72.179688 Z M 9.144531 72.179688 " fill-opacity="1" fill-rule="nonzero"/></g><g clip-path="url(#359a1a95fa)"><path fill="#35b6ff" d="M 8.316406 103.960938 L 8.316406 108.316406 C 8.316406 108.792969 7.933594 109.175781 7.457031 109.175781 L 3.542969 109.175781 L 3.542969 113.089844 C 3.542969 113.566406 3.160156 113.949219 2.683594 113.949219 L -1.671875 113.949219 C -2.144531 113.949219 -2.53125 113.566406 -2.53125 113.089844 L -2.53125 109.175781 L -6.441406 109.175781 C -6.917969 109.175781 -7.300781 108.792969 -7.300781 108.316406 L -7.300781 103.960938 C -7.300781 103.488281 -6.917969 103.101562 -6.441406 103.101562 L -2.53125 103.101562 L -2.53125 99.1875 C -2.53125 98.714844 -2.144531 98.328125 -1.671875 98.328125 L 2.683594 98.328125 C 3.160156 98.328125 3.542969 98.714844 3.542969 99.1875 L 3.542969 103.101562 L 7.457031 103.101562 C 7.921875 103.101562 8.316406 103.488281 8.316406 103.960938 Z M 22.386719 89.824219 L 19.1875 89.824219 L 19.1875 86.625 C 19.1875 86.238281 18.871094 85.921875 18.484375 85.921875 L 14.921875 85.921875 C 14.539062 85.921875 14.222656 86.238281 14.222656 86.625 L 14.222656 89.824219 L 11.019531 89.824219 C 10.636719 89.824219 10.320312 90.140625 10.320312 90.527344 L 10.320312 94.089844 C 10.320312 94.472656 10.636719 94.789062 11.019531 94.789062 L 14.222656 94.789062 L 14.222656 97.992188 C 14.222656 98.375 14.539062 98.691406 14.921875 98.691406 L 18.484375 98.691406 C 18.871094 98.691406 19.1875 98.375 19.1875 97.992188 L 19.1875 94.789062 L 22.386719 94.789062 C 22.773438 94.789062 23.089844 94.472656 23.089844 94.089844 L 23.089844 90.527344 C 23.101562 90.140625 22.78125 89.824219 22.386719 89.824219 Z M 22.386719 89.824219 " fill-opacity="1" fill-rule="nonzero"/></g></svg>