<svg xmlns="http://www.w3.org/2000/svg" xmlns:xlink="http://www.w3.org/1999/xlink" width="160" zoomAndPan="magnify" viewBox="0 0 120 37.5" height="50" preserveAspectRatio="xMidYMid meet" version="1.0"><defs><g/><clipPath id="dc59ba7d1d"><path d="M 46.210938 15 L 48 15 L 48 17 L 46.210938 17 Z M 46.210938 15 " clip-rule="nonzero"/></clipPath><clipPath id="88c79352e5"><path d="M 47 10.214844 L 60 10.214844 L 60 22.796875 L 47 22.796875 Z M 47 10.214844 " clip-rule="nonzero"/></clipPath><clipPath id="98bea87949"><path d="M 60 15 L 62.496094 15 L 62.496094 17 L 60 17 Z M 60 15 " clip-rule="nonzero"/></clipPath></defs><g fill="#931c28" fill-opacity="1"><g transform="translate(-2.235591, 29.778603)"><g><path d="M 24.8125 -24.890625 L 8.796875 -24.890625 L 8.796875 -16.96875 L 23.125 -16.96875 L 23.125 -12.53125 L 8.796875 -12.53125 L 8.796875 -4.4375 L 25.3125 -4.4375 L 25.3125 0 L 3.859375 0 L 3.859375 -29.328125 L 24.8125 -29.328125 Z M 24.8125 -24.890625 "/></g></g></g><g fill="#5278ab" fill-opacity="1"><g transform="translate(31.546119, 29.778603)"><g><path d="M 23.921875 -14.421875 L 28.25 -14.421875 L 28.25 -3.609375 C 26.738281 -2.460938 24.957031 -1.539062 22.90625 -0.84375 C 20.851562 -0.144531 18.832031 0.203125 16.84375 0.203125 C 12.507812 0.203125 8.851562 -1.222656 5.875 -4.078125 C 2.90625 -6.941406 1.421875 -10.46875 1.421875 -14.65625 C 1.421875 -18.851562 2.929688 -22.367188 5.953125 -25.203125 C 8.972656 -28.035156 12.703125 -29.453125 17.140625 -29.453125 C 19.203125 -29.453125 21.234375 -29.082031 23.234375 -28.34375 C 25.234375 -27.601562 26.957031 -26.609375 28.40625 -25.359375 L 25.609375 -21.703125 C 23.203125 -23.941406 20.378906 -25.0625 17.140625 -25.0625 C 14.148438 -25.0625 11.617188 -24.054688 9.546875 -22.046875 C 7.484375 -20.035156 6.453125 -17.578125 6.453125 -14.671875 C 6.453125 -11.734375 7.492188 -9.257812 9.578125 -7.25 C 11.660156 -5.238281 14.195312 -4.234375 17.1875 -4.234375 C 19.445312 -4.234375 21.691406 -4.90625 23.921875 -6.25 Z M 23.921875 -14.421875 "/></g></g></g><g fill="#004aad" fill-opacity="1"><g transform="translate(69.215146, 29.778603)"><g><path d="M 24.8125 -24.890625 L 8.796875 -24.890625 L 8.796875 -16.96875 L 23.125 -16.96875 L 23.125 -12.53125 L 8.796875 -12.53125 L 8.796875 -4.4375 L 25.3125 -4.4375 L 25.3125 0 L 3.859375 0 L 3.859375 -29.328125 L 24.8125 -29.328125 Z M 24.8125 -24.890625 "/></g></g></g><g fill="#a6a6a6" fill-opacity="1"><g transform="translate(54.831348, 36.427361)"><g><path d="M 5.640625 0 L 4.90625 0 L 4.890625 -3.546875 L 3.390625 -0.5 L 2.875 -0.5 L 1.375 -3.546875 L 1.375 0 L 0.625 0 L 0.625 -4.75 L 1.578125 -4.75 L 3.140625 -1.59375 L 4.703125 -4.75 L 5.640625 -4.75 Z M 5.640625 0 "/></g></g></g><g fill="#a6a6a6" fill-opacity="1"><g transform="translate(62.786973, 36.427361)"><g><path d="M 4.015625 -4.03125 L 1.421875 -4.03125 L 1.421875 -2.75 L 3.75 -2.75 L 3.75 -2.03125 L 1.421875 -2.03125 L 1.421875 -0.71875 L 4.09375 -0.71875 L 4.09375 0 L 0.625 0 L 0.625 -4.75 L 4.015625 -4.75 Z M 4.015625 -4.03125 "/></g></g></g><g fill="#a6a6a6" fill-opacity="1"><g transform="translate(68.921621, 36.427361)"><g><path d="M 0.625 -4.75 L 2.5625 -4.75 C 3.28125 -4.75 3.867188 -4.523438 4.328125 -4.078125 C 4.796875 -3.628906 5.03125 -3.0625 5.03125 -2.375 C 5.03125 -1.6875 4.796875 -1.117188 4.328125 -0.671875 C 3.859375 -0.222656 3.265625 0 2.546875 0 L 0.625 0 Z M 1.421875 -4.03125 L 1.421875 -0.71875 L 2.59375 -0.71875 C 3.050781 -0.71875 3.4375 -0.867188 3.75 -1.171875 C 4.0625 -1.484375 4.21875 -1.878906 4.21875 -2.359375 C 4.21875 -2.835938 4.054688 -3.234375 3.734375 -3.546875 C 3.421875 -3.867188 3.03125 -4.03125 2.5625 -4.03125 Z M 1.421875 -4.03125 "/></g></g></g><g fill="#a6a6a6" fill-opacity="1"><g transform="translate(75.86183, 36.427361)"><g><path d="M 0.6875 -6.109375 C 0.78125 -6.203125 0.890625 -6.25 1.015625 -6.25 C 1.148438 -6.25 1.257812 -6.203125 1.34375 -6.109375 C 1.4375 -6.023438 1.484375 -5.914062 1.484375 -5.78125 C 1.484375 -5.644531 1.4375 -5.53125 1.34375 -5.4375 C 1.257812 -5.351562 1.148438 -5.3125 1.015625 -5.3125 C 0.890625 -5.3125 0.78125 -5.351562 0.6875 -5.4375 C 0.601562 -5.53125 0.5625 -5.644531 0.5625 -5.78125 C 0.5625 -5.914062 0.601562 -6.023438 0.6875 -6.109375 Z M 1.421875 0 L 0.625 0 L 0.625 -4.75 L 1.421875 -4.75 Z M 1.421875 0 "/></g></g></g><g fill="#a6a6a6" fill-opacity="1"><g transform="translate(79.600094, 36.427361)"><g><path d="M 3.796875 0 L 2.234375 -2.09375 L 1.421875 -1.203125 L 1.421875 0 L 0.625 0 L 0.625 -4.75 L 1.421875 -4.75 L 1.421875 -2.296875 L 3.6875 -4.75 L 4.625 -4.75 L 2.796875 -2.71875 L 4.75 0 Z M 3.796875 0 "/></g></g></g><g fill="#a6a6a6" fill-opacity="1"><g transform="translate(86.154448, 36.427361)"><g><path d="M 3.6875 -1.078125 L 1.296875 -1.078125 L 0.84375 0 L 0 0 L 2.109375 -4.75 L 2.921875 -4.75 L 5 0 L 4.140625 0 Z M 3.390625 -1.78125 L 2.484375 -3.890625 L 1.59375 -1.78125 Z M 3.390625 -1.78125 "/></g></g></g><g fill="#a6a6a6" fill-opacity="1"><g transform="translate(92.844188, 36.427361)"><g><path d="M 1.421875 -0.71875 L 3.484375 -0.71875 L 3.484375 0 L 0.625 0 L 0.625 -4.75 L 1.421875 -4.75 Z M 1.421875 -0.71875 "/></g></g></g><path fill="#5278ab" d="M 60.035156 13.671875 C 59.191406 12.828125 57.824219 12.828125 56.980469 13.671875 L 56.445312 14.207031 L 55.910156 13.671875 C 55.066406 12.828125 53.695312 12.828125 52.851562 13.671875 C 52.265625 14.257812 52.085938 15.101562 52.320312 15.84375 C 52.277344 15.285156 52.480469 14.707031 52.933594 14.289062 C 53.398438 13.851562 54.066406 13.734375 54.679688 13.84375 C 55.335938 13.957031 55.804688 14.308594 56.269531 14.765625 C 56.277344 14.773438 56.425781 14.917969 56.425781 14.917969 C 56.878906 14.476562 57.308594 13.910156 57.96875 13.792969 C 58.960938 13.613281 60.125 14.53125 59.847656 15.59375 C 59.722656 16.074219 59.355469 16.296875 58.992188 16.582031 C 58.765625 16.761719 58.535156 16.933594 58.3125 17.117188 C 57.820312 17.507812 57.339844 17.929688 56.957031 18.429688 C 56.753906 18.703125 56.574219 19.003906 56.476562 19.332031 C 56.429688 19.488281 56.398438 19.648438 56.394531 19.8125 C 56.386719 19.984375 56.445312 20.152344 56.445312 20.316406 C 56.457031 19.464844 57.179688 18.746094 57.78125 18.230469 C 58.070312 17.980469 58.367188 17.746094 58.679688 17.535156 C 59.023438 17.304688 59.398438 17.128906 59.730469 16.882812 C 59.738281 16.875 59.742188 16.871094 59.75 16.867188 C 60.226562 16.507812 60.605469 16.007812 60.660156 15.394531 C 60.714844 14.769531 60.480469 14.117188 60.035156 13.671875 " fill-opacity="1" fill-rule="nonzero"/><g clip-path="url(#dc59ba7d1d)"><path fill="#5278ab" d="M 47.632812 15.902344 C 47.632812 16.292969 47.316406 16.609375 46.925781 16.609375 C 46.535156 16.609375 46.21875 16.292969 46.21875 15.902344 C 46.21875 15.511719 46.535156 15.195312 46.925781 15.195312 C 47.316406 15.195312 47.632812 15.511719 47.632812 15.902344 " fill-opacity="1" fill-rule="nonzero"/></g><path fill="#5278ab" d="M 60.035156 13.671875 C 59.191406 12.828125 57.824219 12.828125 56.980469 13.671875 L 56.445312 14.207031 L 55.910156 13.671875 C 55.066406 12.828125 53.695312 12.828125 52.851562 13.671875 C 52.265625 14.257812 52.085938 15.101562 52.320312 15.84375 C 52.277344 15.285156 52.480469 14.707031 52.933594 14.289062 C 53.398438 13.851562 54.066406 13.734375 54.679688 13.84375 C 55.335938 13.957031 55.804688 14.308594 56.269531 14.765625 C 56.277344 14.773438 56.425781 14.917969 56.425781 14.917969 C 56.878906 14.476562 57.308594 13.910156 57.96875 13.792969 C 58.960938 13.613281 60.125 14.53125 59.847656 15.59375 C 59.722656 16.074219 59.355469 16.296875 58.992188 16.582031 C 58.765625 16.761719 58.535156 16.933594 58.3125 17.117188 C 57.820312 17.507812 57.339844 17.929688 56.957031 18.429688 C 56.753906 18.703125 56.574219 19.003906 56.476562 19.332031 C 56.429688 19.488281 56.398438 19.648438 56.394531 19.8125 C 56.386719 19.984375 56.445312 20.152344 56.445312 20.316406 C 56.457031 19.464844 57.179688 18.746094 57.78125 18.230469 C 58.070312 17.980469 58.367188 17.746094 58.679688 17.535156 C 59.023438 17.304688 59.398438 17.128906 59.730469 16.882812 C 59.738281 16.875 59.742188 16.871094 59.75 16.867188 C 60.226562 16.507812 60.605469 16.007812 60.660156 15.394531 C 60.714844 14.769531 60.480469 14.117188 60.035156 13.671875 " fill-opacity="1" fill-rule="nonzero"/><g clip-path="url(#88c79352e5)"><path fill="#5278ab" d="M 59.019531 16.339844 C 59.171875 16.222656 59.316406 16.113281 59.433594 15.984375 L 52.859375 15.984375 L 52.496094 19.242188 L 51.359375 10.214844 L 50.800781 15.671875 L 50.4375 14.0625 L 49.863281 15.679688 L 47.390625 15.679688 L 47.390625 16.113281 L 50.167969 16.113281 L 50.34375 15.625 L 50.960938 18.363281 L 51.402344 14.042969 L 52.523438 22.9375 L 53.246094 16.417969 L 58.914062 16.417969 C 58.949219 16.390625 58.984375 16.363281 59.019531 16.339844 " fill-opacity="1" fill-rule="nonzero"/></g><g clip-path="url(#98bea87949)"><path fill="#5278ab" d="M 60.695312 15.984375 C 60.625 16.144531 60.542969 16.289062 60.445312 16.417969 L 62.28125 16.417969 L 62.28125 15.984375 L 60.695312 15.984375 " fill-opacity="1" fill-rule="nonzero"/></g></svg>