<svg xmlns="http://www.w3.org/2000/svg" xmlns:xlink="http://www.w3.org/1999/xlink" width="160" zoomAndPan="magnify" viewBox="0 0 120 37.5" height="50" preserveAspectRatio="xMidYMid meet" version="1.0"><defs><g/><clipPath id="6391d8e7fe"><path d="M 36.886719 13 L 39 13 L 39 16 L 36.886719 16 Z M 36.886719 13 " clip-rule="nonzero"/></clipPath><clipPath id="017ef97baa"><path d="M 38 8.882812 L 51 8.882812 L 51 21.464844 L 38 21.464844 Z M 38 8.882812 " clip-rule="nonzero"/></clipPath></defs><g fill="#931c28" fill-opacity="1"><g transform="translate(-1.874901, 25.925326)"><g><path d="M 21.859375 -21.9375 L 7.75 -21.9375 L 7.75 -14.953125 L 20.390625 -14.953125 L 20.390625 -11.046875 L 7.75 -11.046875 L 7.75 -3.921875 L 22.3125 -3.921875 L 22.3125 0 L 3.390625 0 L 3.390625 -25.859375 L 21.859375 -25.859375 Z M 21.859375 -21.9375 "/></g></g></g><g fill="#5278ab" fill-opacity="1"><g transform="translate(27.900481, 25.925326)"><g><path d="M 21.09375 -12.703125 L 24.890625 -12.703125 L 24.890625 -3.171875 C 23.566406 -2.160156 22 -1.347656 20.1875 -0.734375 C 18.375 -0.117188 16.59375 0.1875 14.84375 0.1875 C 11.03125 0.1875 7.8125 -1.070312 5.1875 -3.59375 C 2.5625 -6.125 1.25 -9.234375 1.25 -12.921875 C 1.25 -16.617188 2.578125 -19.71875 5.234375 -22.21875 C 7.898438 -24.71875 11.191406 -25.96875 15.109375 -25.96875 C 16.929688 -25.96875 18.722656 -25.640625 20.484375 -24.984375 C 22.242188 -24.335938 23.765625 -23.457031 25.046875 -22.34375 L 22.5625 -19.140625 C 20.445312 -21.109375 17.960938 -22.09375 15.109375 -22.09375 C 12.472656 -22.09375 10.242188 -21.203125 8.421875 -19.421875 C 6.597656 -17.648438 5.6875 -15.484375 5.6875 -12.921875 C 5.6875 -10.335938 6.601562 -8.160156 8.4375 -6.390625 C 10.269531 -4.617188 12.503906 -3.734375 15.140625 -3.734375 C 17.140625 -3.734375 19.125 -4.320312 21.09375 -5.5 Z M 21.09375 -12.703125 "/></g></g></g><g fill="#004aad" fill-opacity="1"><g transform="translate(61.102167, 25.925326)"><g><path d="M 21.859375 -21.9375 L 7.75 -21.9375 L 7.75 -14.953125 L 20.390625 -14.953125 L 20.390625 -11.046875 L 7.75 -11.046875 L 7.75 -3.921875 L 22.3125 -3.921875 L 22.3125 0 L 3.390625 0 L 3.390625 -25.859375 L 21.859375 -25.859375 Z M 21.859375 -21.9375 "/></g></g></g><g fill="#a6a6a6" fill-opacity="1"><g transform="translate(36.660135, 35.962543)"><g><path d="M 6.796875 0 L 5.90625 0 L 5.90625 -4.28125 L 4.09375 -0.59375 L 3.46875 -0.59375 L 1.65625 -4.28125 L 1.65625 0 L 0.75 0 L 0.75 -5.71875 L 1.890625 -5.71875 L 3.78125 -1.921875 L 5.65625 -5.71875 L 6.796875 -5.71875 Z M 6.796875 0 "/></g></g></g><g fill="#a6a6a6" fill-opacity="1"><g transform="translate(46.257154, 35.962543)"><g><path d="M 4.84375 -4.859375 L 1.71875 -4.859375 L 1.71875 -3.3125 L 4.515625 -3.3125 L 4.515625 -2.4375 L 1.71875 -2.4375 L 1.71875 -0.859375 L 4.9375 -0.859375 L 4.9375 0 L 0.75 0 L 0.75 -5.71875 L 4.84375 -5.71875 Z M 4.84375 -4.859375 "/></g></g></g><g fill="#a6a6a6" fill-opacity="1"><g transform="translate(53.657493, 35.962543)"><g><path d="M 0.75 -5.71875 L 3.09375 -5.71875 C 3.945312 -5.71875 4.65625 -5.445312 5.21875 -4.90625 C 5.78125 -4.375 6.0625 -3.691406 6.0625 -2.859375 C 6.0625 -2.035156 5.78125 -1.351562 5.21875 -0.8125 C 4.65625 -0.269531 3.941406 0 3.078125 0 L 0.75 0 Z M 1.71875 -4.859375 L 1.71875 -0.859375 L 3.125 -0.859375 C 3.6875 -0.859375 4.148438 -1.046875 4.515625 -1.421875 C 4.890625 -1.796875 5.078125 -2.269531 5.078125 -2.84375 C 5.078125 -3.425781 4.882812 -3.90625 4.5 -4.28125 C 4.125 -4.664062 3.648438 -4.859375 3.078125 -4.859375 Z M 1.71875 -4.859375 "/></g></g></g><g fill="#a6a6a6" fill-opacity="1"><g transform="translate(62.029597, 35.962543)"><g><path d="M 0.84375 -7.375 C 0.945312 -7.476562 1.078125 -7.53125 1.234375 -7.53125 C 1.390625 -7.53125 1.519531 -7.476562 1.625 -7.375 C 1.726562 -7.269531 1.78125 -7.132812 1.78125 -6.96875 C 1.78125 -6.800781 1.726562 -6.664062 1.625 -6.5625 C 1.519531 -6.457031 1.390625 -6.40625 1.234375 -6.40625 C 1.078125 -6.40625 0.945312 -6.457031 0.84375 -6.5625 C 0.738281 -6.664062 0.6875 -6.800781 0.6875 -6.96875 C 0.6875 -7.132812 0.738281 -7.269531 0.84375 -7.375 Z M 1.71875 0 L 0.75 0 L 0.75 -5.71875 L 1.71875 -5.71875 Z M 1.71875 0 "/></g></g></g><g fill="#a6a6a6" fill-opacity="1"><g transform="translate(66.539134, 35.962543)"><g><path d="M 4.5625 0 L 2.6875 -2.53125 L 1.71875 -1.453125 L 1.71875 0 L 0.75 0 L 0.75 -5.71875 L 1.71875 -5.71875 L 1.71875 -2.765625 L 4.453125 -5.71875 L 5.578125 -5.71875 L 3.359375 -3.28125 L 5.734375 0 Z M 4.5625 0 "/></g></g></g><g fill="#a6a6a6" fill-opacity="1"><g transform="translate(74.445772, 35.962543)"><g><path d="M 4.453125 -1.296875 L 1.5625 -1.296875 L 1.015625 0 L 0.015625 0 L 2.53125 -5.71875 L 3.515625 -5.71875 L 6.015625 0 L 5 0 Z M 4.078125 -2.15625 L 3 -4.6875 L 1.921875 -2.15625 Z M 4.078125 -2.15625 "/></g></g></g><g fill="#a6a6a6" fill-opacity="1"><g transform="translate(82.51573, 35.962543)"><g><path d="M 1.71875 -0.875 L 4.1875 -0.875 L 4.1875 0 L 0.75 0 L 0.75 -5.71875 L 1.71875 -5.71875 Z M 1.71875 -0.875 "/></g></g></g><path fill="#5278ab" d="M 50.710938 12.335938 C 49.867188 11.492188 48.496094 11.492188 47.652344 12.335938 L 47.117188 12.875 L 46.582031 12.335938 C 45.738281 11.492188 44.371094 11.492188 43.527344 12.335938 C 42.9375 12.925781 42.761719 13.769531 42.996094 14.511719 C 42.953125 13.953125 43.15625 13.375 43.605469 12.957031 C 44.074219 12.519531 44.738281 12.402344 45.351562 12.511719 C 46.007812 12.625 46.480469 12.976562 46.941406 13.433594 C 46.953125 13.441406 47.101562 13.585938 47.101562 13.585938 C 47.554688 13.144531 47.980469 12.578125 48.640625 12.460938 C 49.632812 12.28125 50.800781 13.199219 50.523438 14.261719 C 50.394531 14.742188 50.03125 14.964844 49.667969 15.25 C 49.441406 15.429688 49.210938 15.601562 48.984375 15.785156 C 48.496094 16.175781 48.011719 16.597656 47.632812 17.097656 C 47.425781 17.371094 47.25 17.671875 47.152344 18 C 47.101562 18.15625 47.074219 18.316406 47.066406 18.480469 C 47.058594 18.652344 47.121094 18.820312 47.117188 18.984375 C 47.128906 18.132812 47.855469 17.414062 48.457031 16.894531 C 48.742188 16.648438 49.039062 16.414062 49.355469 16.203125 C 49.699219 15.972656 50.074219 15.796875 50.402344 15.550781 C 50.410156 15.542969 50.417969 15.539062 50.421875 15.535156 C 50.902344 15.175781 51.28125 14.675781 51.332031 14.0625 C 51.386719 13.4375 51.15625 12.785156 50.710938 12.335938 " fill-opacity="1" fill-rule="nonzero"/><g clip-path="url(#6391d8e7fe)"><path fill="#5278ab" d="M 38.304688 14.570312 C 38.304688 14.960938 37.988281 15.277344 37.601562 15.277344 C 37.210938 15.277344 36.894531 14.960938 36.894531 14.570312 C 36.894531 14.179688 37.210938 13.863281 37.601562 13.863281 C 37.988281 13.863281 38.304688 14.179688 38.304688 14.570312 " fill-opacity="1" fill-rule="nonzero"/></g><path fill="#5278ab" d="M 50.710938 12.335938 C 49.867188 11.492188 48.496094 11.492188 47.652344 12.335938 L 47.117188 12.875 L 46.582031 12.335938 C 45.738281 11.492188 44.371094 11.492188 43.527344 12.335938 C 42.9375 12.925781 42.761719 13.769531 42.996094 14.511719 C 42.953125 13.953125 43.15625 13.375 43.605469 12.957031 C 44.074219 12.519531 44.738281 12.402344 45.351562 12.511719 C 46.007812 12.625 46.480469 12.976562 46.941406 13.433594 C 46.953125 13.441406 47.101562 13.585938 47.101562 13.585938 C 47.554688 13.144531 47.980469 12.578125 48.640625 12.460938 C 49.632812 12.28125 50.800781 13.199219 50.523438 14.261719 C 50.394531 14.742188 50.03125 14.964844 49.667969 15.25 C 49.441406 15.429688 49.210938 15.601562 48.984375 15.785156 C 48.496094 16.175781 48.011719 16.597656 47.632812 17.097656 C 47.425781 17.371094 47.25 17.671875 47.152344 18 C 47.101562 18.15625 47.074219 18.316406 47.066406 18.480469 C 47.058594 18.652344 47.121094 18.820312 47.117188 18.984375 C 47.128906 18.132812 47.855469 17.414062 48.457031 16.894531 C 48.742188 16.648438 49.039062 16.414062 49.355469 16.203125 C 49.699219 15.972656 50.074219 15.796875 50.402344 15.550781 C 50.410156 15.542969 50.417969 15.539062 50.421875 15.535156 C 50.902344 15.175781 51.28125 14.675781 51.332031 14.0625 C 51.386719 13.4375 51.15625 12.785156 50.710938 12.335938 " fill-opacity="1" fill-rule="nonzero"/><g clip-path="url(#017ef97baa)"><path fill="#5278ab" d="M 49.695312 15.007812 C 49.847656 14.886719 49.992188 14.777344 50.105469 14.652344 L 43.53125 14.652344 L 43.171875 17.910156 L 42.035156 8.882812 L 41.472656 14.339844 L 41.113281 12.730469 L 40.535156 14.347656 L 38.066406 14.347656 L 38.066406 14.78125 L 40.84375 14.78125 L 41.019531 14.292969 L 41.632812 17.027344 L 42.078125 12.710938 L 43.195312 21.605469 L 43.921875 15.085938 L 49.589844 15.085938 C 49.625 15.058594 49.660156 15.03125 49.695312 15.007812 " fill-opacity="1" fill-rule="nonzero"/></g><path fill="#5278ab" d="M 51.367188 14.652344 C 51.300781 14.8125 51.214844 14.957031 51.121094 15.085938 L 52.953125 15.085938 L 52.953125 14.652344 L 51.367188 14.652344 " fill-opacity="1" fill-rule="nonzero"/></svg>