<svg xmlns="http://www.w3.org/2000/svg" xmlns:xlink="http://www.w3.org/1999/xlink" width="40" zoomAndPan="magnify" viewBox="0 0 30 30.000001" height="40" preserveAspectRatio="xMidYMid meet" version="1.0"><defs><g/><clipPath id="af690ec293"><path d="M 0.484375 0 L 27 0 L 27 28 L 0.484375 28 Z M 0.484375 0 " clip-rule="nonzero"/></clipPath><clipPath id="dbd0a38cb2"><path d="M 13 0 L 29.515625 0 L 29.515625 27 L 13 27 Z M 13 0 " clip-rule="nonzero"/></clipPath><clipPath id="f4d0744abc"><path d="M 4 18 L 25 18 L 25 29.03125 L 4 29.03125 Z M 4 18 " clip-rule="nonzero"/></clipPath><clipPath id="d64292d649"><path d="M 13 20 L 26 20 L 26 29.03125 L 13 29.03125 Z M 13 20 " clip-rule="nonzero"/></clipPath><clipPath id="548e28234d"><path d="M 13 22 L 17 22 L 17 29.03125 L 13 29.03125 Z M 13 22 " clip-rule="nonzero"/></clipPath><clipPath id="456f2745e6"><path d="M 14 28 L 17 28 L 17 29.03125 L 14 29.03125 Z M 14 28 " clip-rule="nonzero"/></clipPath><clipPath id="2583fd421d"><path d="M 9 17 L 15 17 L 15 29.03125 L 9 29.03125 Z M 9 17 " clip-rule="nonzero"/></clipPath><clipPath id="9237544e85"><path d="M 15 17 L 21 17 L 21 29.03125 L 15 29.03125 Z M 15 17 " clip-rule="nonzero"/></clipPath></defs><g clip-path="url(#af690ec293)"><path fill="#cbe2ff" d="M 15 27.40625 L 20.75 25.953125 C 24.03125 23.226562 26.125 19.113281 26.125 14.515625 C 26.125 7.421875 21.152344 1.484375 14.5 0.00390625 C 6.714844 0.273438 0.484375 6.667969 0.484375 14.515625 C 0.484375 18.546875 2.128906 22.195312 4.78125 24.824219 Z M 15 27.40625 " fill-opacity="1" fill-rule="nonzero"/></g><g clip-path="url(#dbd0a38cb2)"><path fill="#bed8fb" d="M 25.824219 14.515625 C 25.824219 19.273438 23.535156 23.496094 19.996094 26.144531 L 25.210938 24.832031 C 27.871094 22.195312 29.515625 18.546875 29.515625 14.515625 C 29.515625 6.5 23.019531 0 15 0 C 14.375 0 13.757812 0.0390625 13.15625 0.113281 C 20.300781 1.019531 25.824219 7.121094 25.824219 14.515625 Z M 25.824219 14.515625 " fill-opacity="1" fill-rule="nonzero"/></g><path fill="#365e7d" d="M 18.605469 5.5 C 18.605469 4.757812 18.003906 4.15625 17.261719 4.15625 L 12.636719 4.15625 C 10.929688 4.15625 9.546875 5.539062 9.546875 7.246094 L 9.546875 10.675781 L 20.445312 10.675781 L 20.445312 7.296875 C 20.445312 6.554688 19.84375 5.953125 19.101562 5.953125 L 19.054688 5.953125 C 18.808594 5.949219 18.605469 5.75 18.605469 5.5 Z M 18.605469 5.5 " fill-opacity="1" fill-rule="nonzero"/><path fill="#2b4d66" d="M 19.105469 5.949219 L 19.058594 5.949219 C 18.808594 5.949219 18.605469 5.742188 18.605469 5.496094 C 18.605469 4.75 18.003906 4.152344 17.261719 4.152344 L 16.757812 4.152344 L 16.757812 10.671875 L 20.449219 10.671875 L 20.449219 7.292969 C 20.449219 6.550781 19.847656 5.949219 19.105469 5.949219 Z M 19.105469 5.949219 " fill-opacity="1" fill-rule="nonzero"/><g clip-path="url(#f4d0744abc)"><path fill="#4a80aa" d="M 24.582031 21.117188 C 24.226562 20.765625 23.789062 20.492188 23.289062 20.339844 L 19.328125 19.085938 L 15 18.933594 L 10.667969 19.085938 L 6.703125 20.339844 C 5.367188 20.757812 4.453125 22 4.453125 23.40625 L 4.453125 24.492188 C 6.992188 27.171875 10.546875 28.890625 14.5 29.019531 C 18.929688 28.039062 22.617188 25.078125 24.582031 21.117188 Z M 24.582031 21.117188 " fill-opacity="1" fill-rule="nonzero"/></g><g clip-path="url(#d64292d649)"><path fill="#407093" d="M 25.546875 24.492188 L 25.546875 23.40625 C 25.546875 22.414062 25.09375 21.503906 24.351562 20.902344 C 22.246094 25.1875 18.089844 28.289062 13.164062 28.914062 C 13.757812 28.988281 14.363281 29.027344 14.976562 29.03125 C 15.566406 29.03125 16.152344 29 16.722656 28.929688 C 20.183594 28.523438 23.273438 26.894531 25.546875 24.492188 Z M 25.546875 24.492188 " fill-opacity="1" fill-rule="nonzero"/></g><path fill="#e4f6ff" d="M 15.328125 28.816406 C 16.207031 27.070312 18.492188 22.121094 17.839844 19.03125 L 15 17.925781 L 12.160156 19.03125 C 11.484375 22.214844 13.941406 27.382812 14.75 28.96875 C 14.941406 28.917969 15.136719 28.867188 15.328125 28.816406 Z M 15.328125 28.816406 " fill-opacity="1" fill-rule="nonzero"/><g clip-path="url(#548e28234d)"><path fill="#e28086" d="M 16.824219 27.433594 L 15.675781 22.902344 L 14.324219 22.902344 L 13.175781 27.421875 L 14.597656 29.003906 C 14.960938 28.917969 15.3125 28.828125 15.664062 28.714844 Z M 16.824219 27.433594 " fill-opacity="1" fill-rule="nonzero"/></g><g clip-path="url(#456f2745e6)"><path fill="#dd636e" d="M 14.621094 29.027344 C 14.738281 29.03125 14.859375 29.03125 14.972656 29.03125 C 15.109375 29.03125 15.242188 29.03125 15.378906 29.027344 L 16.113281 28.214844 C 15.53125 28.417969 14.941406 28.585938 14.335938 28.714844 Z M 14.621094 29.027344 " fill-opacity="1" fill-rule="nonzero"/></g><path fill="#ffddce" d="M 17.425781 18.609375 L 17.425781 16.054688 L 12.574219 16.054688 L 12.574219 18.609375 C 12.574219 19.949219 15 21.410156 15 21.410156 C 15 21.410156 17.425781 19.949219 17.425781 18.609375 Z M 17.425781 18.609375 " fill-opacity="1" fill-rule="nonzero"/><path fill="#ffddce" d="M 20.449219 10.222656 L 19.519531 10.222656 C 19.003906 10.222656 18.582031 9.804688 18.582031 9.289062 L 18.582031 8.777344 C 18.582031 8.101562 17.925781 7.632812 17.289062 7.84375 C 15.804688 8.335938 14.195312 8.335938 12.710938 7.84375 C 12.070312 7.632812 11.417969 8.109375 11.417969 8.777344 L 11.417969 9.289062 C 11.417969 9.804688 10.996094 10.222656 10.480469 10.222656 L 9.550781 10.222656 L 9.550781 11.75 C 9.550781 12.140625 9.867188 12.457031 10.257812 12.457031 C 10.382812 12.457031 10.480469 12.554688 10.492188 12.679688 C 10.640625 15.042969 12.601562 16.914062 15.003906 16.914062 C 17.410156 16.914062 19.367188 15.042969 19.519531 12.679688 C 19.523438 12.554688 19.628906 12.457031 19.75 12.457031 C 20.144531 12.457031 20.460938 12.140625 20.460938 11.75 Z M 20.449219 10.222656 " fill-opacity="1" fill-rule="nonzero"/><path fill="#ffcbbe" d="M 19.519531 10.222656 C 19.003906 10.222656 18.582031 9.804688 18.582031 9.289062 L 18.582031 8.777344 C 18.582031 8.101562 17.925781 7.632812 17.289062 7.84375 C 17.113281 7.898438 16.9375 7.949219 16.757812 7.996094 L 16.757812 13.042969 C 16.734375 14.679688 15.832031 16.109375 14.507812 16.886719 C 14.671875 16.902344 14.835938 16.914062 15 16.914062 C 17.398438 16.914062 19.359375 15.042969 19.511719 12.679688 C 19.519531 12.554688 19.621094 12.457031 19.746094 12.457031 C 20.136719 12.457031 20.453125 12.140625 20.453125 11.75 L 20.453125 10.222656 Z M 19.519531 10.222656 " fill-opacity="1" fill-rule="nonzero"/><path fill="#f4fbff" d="M 12.574219 17.925781 L 10.667969 19.472656 L 12.664062 21.9375 C 12.90625 22.175781 13.289062 22.1875 13.546875 21.972656 L 15.050781 20.71875 Z M 12.574219 17.925781 " fill-opacity="1" fill-rule="nonzero"/><path fill="#f4fbff" d="M 17.425781 17.925781 L 15.050781 20.71875 L 16.464844 21.925781 C 16.722656 22.148438 17.105469 22.136719 17.351562 21.898438 L 19.332031 19.472656 Z M 17.425781 17.925781 " fill-opacity="1" fill-rule="nonzero"/><g clip-path="url(#2583fd421d)"><path fill="#365e7d" d="M 12.574219 17.925781 L 9.777344 19.296875 C 9.5625 19.398438 9.476562 19.660156 9.589844 19.867188 L 10.136719 20.929688 C 10.277344 21.203125 10.226562 21.542969 10.003906 21.757812 C 9.890625 21.871094 9.773438 21.988281 9.664062 22.097656 C 9.476562 22.285156 9.410156 22.566406 9.488281 22.816406 C 10.152344 24.832031 13.328125 27.910156 14.53125 29.027344 C 14.609375 29.027344 14.695312 29.03125 14.773438 29.03125 C 13.90625 27.335938 10.816406 20.882812 12.574219 17.925781 Z M 12.574219 17.925781 " fill-opacity="1" fill-rule="nonzero"/></g><g clip-path="url(#9237544e85)"><path fill="#365e7d" d="M 19.988281 21.757812 C 19.769531 21.535156 19.71875 21.203125 19.859375 20.929688 L 20.402344 19.867188 C 20.511719 19.660156 20.425781 19.398438 20.214844 19.296875 L 17.421875 17.925781 C 19.179688 20.890625 16.089844 27.332031 15.214844 29.03125 C 15.292969 29.03125 15.378906 29.027344 15.460938 29.027344 C 16.667969 27.910156 19.835938 24.835938 20.5 22.824219 C 20.585938 22.566406 20.515625 22.289062 20.324219 22.101562 C 20.226562 21.988281 20.101562 21.871094 19.988281 21.757812 Z M 19.988281 21.757812 " fill-opacity="1" fill-rule="nonzero"/></g><path fill="#dd636e" d="M 15.050781 20.714844 L 13.570312 21.949219 L 14.324219 22.902344 L 15.675781 22.902344 L 16.429688 21.894531 Z M 15.050781 20.714844 " fill-opacity="1" fill-rule="nonzero"/><g fill="#ffddce" fill-opacity="1"><g transform="translate(14.739163, 14.879034)"><g><path d="M 0.25 0.015625 C 0.195312 0.015625 0.15625 0 0.125 -0.03125 C 0.101562 -0.0625 0.09375 -0.0976562 0.09375 -0.140625 C 0.09375 -0.191406 0.101562 -0.234375 0.125 -0.265625 C 0.15625 -0.296875 0.195312 -0.3125 0.25 -0.3125 C 0.300781 -0.3125 0.34375 -0.296875 0.375 -0.265625 C 0.40625 -0.242188 0.421875 -0.207031 0.421875 -0.15625 C 0.421875 -0.101562 0.40625 -0.0625 0.375 -0.03125 C 0.351562 0 0.3125 0.015625 0.25 0.015625 Z M 0.25 0.015625 "/></g></g></g></svg>