<svg xmlns="http://www.w3.org/2000/svg" xmlns:xlink="http://www.w3.org/1999/xlink" width="40" zoomAndPan="magnify" viewBox="0 0 30 30.000001" height="40" preserveAspectRatio="xMidYMid meet" version="1.0"><defs><g/><clipPath id="10f3336a75"><path d="M 0.484375 0 L 29.515625 0 L 29.515625 29.03125 L 0.484375 29.03125 Z M 0.484375 0 " clip-rule="nonzero"/></clipPath></defs><g clip-path="url(#10f3336a75)"><path fill="#ffffff" d="M 0.484375 0 L 29.515625 0 L 29.515625 29.03125 L 0.484375 29.03125 Z M 0.484375 0 " fill-opacity="1" fill-rule="nonzero"/><path fill="#ffffff" d="M 0.484375 0 L 29.515625 0 L 29.515625 29.03125 L 0.484375 29.03125 Z M 0.484375 0 " fill-opacity="1" fill-rule="nonzero"/></g><g fill="#931c28" fill-opacity="1"><g transform="translate(0.540144, 19.578475)"><g><path d="M 7.46875 -6.765625 L 3 -6.765625 L 3 -5.078125 L 7.03125 -5.078125 L 7.03125 -3.390625 L 3 -3.390625 L 3 -1.6875 L 7.59375 -1.6875 L 7.59375 0 L 0.84375 0 L 0.84375 -8.453125 L 7.46875 -8.453125 Z M 7.46875 -6.765625 "/></g></g></g><g fill="#5278ab" fill-opacity="1"><g transform="translate(10.507439, 19.578475)"><g><path d="M 6.46875 -4.296875 L 8.328125 -4.296875 L 8.328125 -1 C 7.867188 -0.675781 7.3125 -0.410156 6.65625 -0.203125 C 6.007812 -0.00390625 5.394531 0.09375 4.8125 0.09375 C 3.519531 0.09375 2.441406 -0.316406 1.578125 -1.140625 C 0.722656 -1.960938 0.296875 -2.992188 0.296875 -4.234375 C 0.296875 -5.453125 0.738281 -6.472656 1.625 -7.296875 C 2.507812 -8.117188 3.617188 -8.53125 4.953125 -8.53125 C 5.578125 -8.53125 6.195312 -8.414062 6.8125 -8.1875 C 7.4375 -7.957031 7.96875 -7.648438 8.40625 -7.265625 L 7.203125 -5.8125 C 6.890625 -6.09375 6.53125 -6.316406 6.125 -6.484375 C 5.726562 -6.648438 5.332031 -6.734375 4.9375 -6.734375 C 4.25 -6.734375 3.664062 -6.492188 3.1875 -6.015625 C 2.71875 -5.535156 2.484375 -4.941406 2.484375 -4.234375 C 2.484375 -3.515625 2.71875 -2.910156 3.1875 -2.421875 C 3.664062 -1.941406 4.257812 -1.703125 4.96875 -1.703125 C 5.414062 -1.703125 5.914062 -1.835938 6.46875 -2.109375 Z M 6.46875 -4.296875 "/></g></g></g><g fill="#004aad" fill-opacity="1"><g transform="translate(21.302545, 19.578475)"><g><path d="M 7.46875 -6.765625 L 3 -6.765625 L 3 -5.078125 L 7.03125 -5.078125 L 7.03125 -3.390625 L 3 -3.390625 L 3 -1.6875 L 7.59375 -1.6875 L 7.59375 0 L 0.84375 0 L 0.84375 -8.453125 L 7.46875 -8.453125 Z M 7.46875 -6.765625 "/></g></g></g></svg>